# AST/ASF file generated using VICON BodyLanguage
# -----------------------------------------------
:version 1.10
:name VICON
:units
  mass 1.0
  length 0.45
  angle deg
:documentation
   .ast/.asf automatically generated from VICON data using
   VICON BodyBuilder and BodyLanguage model FoxedUp or BRILLIANT.MOD
:root
   order TX TY TZ RX RY RZ
   axis XYZ
   position 0 0 0  
   orientation 0 0 0 
:bonedata
  begin
     id 1 
     name lhipjoint
     direction 0.660183 -0.676772 0.325788 
     length 2.75133 
     axis 0 0 0  XYZ
  end
  begin
     id 2 
     name lfemur
     direction 0.34202 -0.939693 0  
     length 7.70317  
     axis 0 0 20  XYZ
    dof rx ry rz
    limits (-160.0 20.0)
           (-70.0 70.0)
           (-60.0 70.0)
  end
  begin
     id 3 
     name ltibia
     direction 0.342105 -0.939662 0   
     length 7.18701   
     axis 0 0 20   XYZ
    dof rx
    limits (-10.0 170.0)
  end
  begin
     id 4 
     name lfoot
     direction 0.14163 -0.389126 0.910232   
     length 2.41719   
     axis -90 7.62852e-016 20   XYZ
    dof rx rz
    limits (-45.0 90.0)
           (-70.0 20.0)
  end
  begin
     id 5 
     name ltoes
     direction 1.53533e-011 -4.21926e-011 1   
     length 1.18611   
     axis -90 7.62852e-016 20   XYZ
    dof rx
    limits (-90.0 20.0)
  end
  begin
     id 6 
     name rhipjoint
     direction -0.6658 -0.67229 0.323631   
     length 2.76968  
     axis 0 0 0  XYZ 
  end
  begin
     id 7 
     name rfemur
     direction -0.34202 -0.939693 0   
     length 7.92547   
     axis 0 0 -20   XYZ
    dof rx ry rz
    limits (-160.0 20.0)
           (-70.0 70.0)
           (-70.0 60.0)
  end
  begin
     id 8 
     name rtibia
     direction -0.342022 -0.939692 0   
     length 7.22641   
     axis 0 0 -20   XYZ
    dof rx
    limits (-10.0 170.0)
 end
 begin
     id 9 
     name rfoot
     direction -0.105675 -0.29034 0.951071   
     length 2.48149  
     axis -90 -7.62852e-016 -20   XYZ
    dof rx rz
    limits (-45.0 90.0)
           (-20.0 70.0)
  end
  begin
     id 10 
     name rtoes
     direction -1.5349e-011 -4.21859e-011 1   
     length 1.23343   
     axis -90 -7.62852e-016 -20   XYZ
    dof rx
    limits (-90.0 20.0)
  end
  begin
     id 11 
     name lowerback
     direction 0.0104173 0.993624 -0.112266   
     length 2.00527   
     axis 0 0 0   XYZ
    dof rx ry rz
    limits (-20.0 45.0)
           (-30.0 30.0)
           (-30.0 30.0)
  end
  begin
     id 12 
     name upperback
     direction 0.00733149 0.999856 -0.0152913   
     length 2.01385   
     axis 0 0 0   XYZ
    dof rx ry rz
    limits (-20.0 45.0)
           (-30.0 30.0)
           (-30.0 30.0)
  end
  begin
     id 13 
     name thorax
     direction 0.0026304 0.999318 0.036841   
     length 2.03734   
     axis 0 0 0   XYZ
    dof rx ry rz
    limits (-20.0 45.0)
           (-30.0 30.0)
           (-30.0 30.0)
  end
  begin
     id 14 
     name lowerneck
     direction 0.0293154 0.998757 0.0403082   
     length 1.65303   
     axis 0 0 0   XYZ
    dof rx ry rz
    limits (-20.0 45.0)
           (-30.0 30.0)
           (-30.0 30.0)
  end
  begin
     id 15 
     name upperneck
     direction -0.0376619 0.998184 -0.0470083   
     length 1.60926   
     axis 0 0 0   XYZ
    dof rx ry rz
    limits (-20.0 45.0)
           (-30.0 30.0)
           (-30.0 30.0)
  end
  begin
     id 16
     name head
     direction -0.0170133 0.999635 -0.0209778  
     length 1.73625  
     axis 0 0 0   XYZ
    dof rx ry rz
    limits (-20.0 45.0)
           (-30.0 30.0)
           (-30.0 30.0)
  end
  begin
     id 17 
     name lclavicle
     direction 0.919857 0.39181 -0.0186333  
     length 3.75313  
     axis 0 0 0   XYZ
    dof ry rz
    limits (-20.0 10.0)
           (0.0 20.0)
  end
  begin
     id 18 
     name lhumerus
     direction 1 -4.48988e-011 1.44029e-027   
     length 5.49313   
     axis 180 -30 -90   XYZ
    dof rx ry rz
    limits (-60.0 90.0)
           (-90.0 90.0)
           (-90.0 90.0)
  end
  begin
     id 19
     name lradius
     direction 1 -4.48924e-011 7.46281e-027   
     length 3.29037   
     axis 180 -30 -90   XYZ
    dof rx
    limits (-10.0 170.0)
  end
  begin
     id 20
     name lwrist
     direction 1 -4.48955e-011 2.19879e-026   
     length 1.64519   
     axis -1.34358e-014 90 90   XYZ
    dof ry
    limits (-180.0 0.0)
 end
  begin
     id 21 
     name lhand
     direction 1 -4.48978e-011 4.39747e-026   
     length 0.729656   
     axis -2.80598e-014 90 90   XYZ
    dof rx rz
    limits (-90.0 90.0)
           (-45.0 45.0)
  end
  begin
     id 22 
     name lfingers
     direction 1 -4.49071e-011 8.79411e-026   
     length 0.588268   
     axis -5.61193e-014 90 90   XYZ
    dof rx
    limits (0.0 90.0)
  end
  begin
     id 23
     name lthumb
     direction 0.707107 -6.34817e-011 0.707107   
     length 0.844638   
     axis -90 45 -9.86923e-015   XYZ
    dof rx rz
    limits (-45.0 45.0)
           (-45.0 45.0)
  end
  begin
     id 24 
     name rclavicle
     direction -0.919898 0.388279 0.0550233   
     length 3.7171  
     axis 0 0 0   XYZ 
    dof ry rz
    limits (-10.0 20.0)
           (-20.0 0.0)
  end
  begin
     id 25 
     name rhumerus
     direction -1 -4.48968e-011 9.98372e-028  
     length 5.23684   
     axis 180 30 90   XYZ
    dof rx ry rz
    limits (-90.0 60.0)
           (-90.0 90.0)
           (-90.0 90.0)
  end
  begin
     id 26 
     name rradius
     direction -1 -4.48956e-011 1.01023e-026   
     length 3.38251   
     axis 180 30 90   XYZ
    dof rx
    limits (-10.0 170.0)
  end
  begin
     id 27 
     name rwrist
     direction -1 -4.4892e-011 2.19886e-026   
     length 1.69126   
     axis -1.34358e-014 -90 -90   XYZ
    dof ry
    limits (-180.0 0.0)
  end
  begin
     id 28
     name rhand
     direction -1 -4.49024e-011 4.39727e-026   
     length 0.691454   
     axis -2.80598e-014 -90 -90   XYZ
    dof rx rz
    limits (-90.0 90.0)
           (-45.0 45.0)
  end
  begin
     id 29
     name rfingers
     direction -1 -4.49097e-011 8.79388e-026   
     length 0.557468   
     axis -5.61193e-014 -90 -90   XYZ
    dof rx
    limits (0.0 90.0)
  end
  begin
     id 30
     name rthumb
     direction -0.707107 -6.34938e-011 0.707107   
     length 0.800416   
     axis -90 -45 9.86923e-015   XYZ
    dof rx rz
    limits (-45.0 45.0)
           (-45.0 45.0)
  end
:hierarchy
  begin
    root lhipjoint rhipjoint lowerback
    lhipjoint lfemur
    lfemur ltibia
    ltibia lfoot
    lfoot ltoes
    rhipjoint rfemur
    rfemur rtibia
    rtibia rfoot
    rfoot rtoes
    lowerback upperback
    upperback thorax
    thorax lowerneck lclavicle rclavicle
    lowerneck upperneck
    upperneck head
    lclavicle lhumerus
    lhumerus lradius
    lradius lwrist
    lwrist lhand lthumb
    lhand lfingers
    rclavicle rhumerus
    rhumerus rradius
    rradius rwrist
    rwrist rhand rthumb
    rhand rfingers
  end

#!OML:ASF H:\BabyWalks\Project 1\Capture day 1\Session 1\baby.ASF
:FULLY-SPECIFIED
:DEGREES
100
root -38.7298 17.4669 -3.43147 -18.0196 78.0944 -17.4979
lowerback 13.913 -1.21342 1.7163
upperback 5.31096 -1.03381 2.95004
thorax -2.18059 -0.41998 2.26908
lowerneck -3.83912 4.43778 1.70207
upperneck -2.27712 5.87424 -5.75985
head 0.175401 2.93498 -1.99669
rclavicle 1.46107e-014 -2.8625e-014
rhumerus -35.5637 16.5011 -83.7651
rradius 45.4374
rwrist 3.50205
rhand -6.77734 -16.9856
rfingers 7.12502
rthumb 19.085 -46.0692
lclavicle 1.46107e-014 -2.8625e-014
lhumerus -38.6666 2.84695 83.4687
lradius 48.535
lwrist 1.0346
lhand 0.457045 12.3151
lfingers 7.12502
lthumb 26.0281 40.5523
rfemur 4.46638 12.6435 26.5188
rtibia 18.9267
rfoot -23.4678 -1.52935
rtoes 2.88529
lfemur -20.0337 -7.83157 -10.0098
ltibia 32.4749
lfoot -17.1526 -14.0348
ltoes -4.8724
101
root -38.7302 17.4646 -3.43138 -18.2546 78.1739 -17.807
lowerback 13.9694 -1.22441 1.72053
upperback 5.33241 -1.04326 2.96875
thorax -2.18779 -0.423822 2.28878
lowerneck -3.7554 4.43271 1.52384
upperneck -2.35271 5.87152 -5.64907
head 0.128001 2.93764 -1.93305
rclavicle -1.70955e-014 1.31198e-014
rhumerus -35.5065 16.5944 -83.8095
rradius 45.5312
rwrist 3.49411
rhand -6.7912 -16.9993
rfingers 7.12502
rthumb 19.0716 -46.0842
lclavicle -1.70955e-014 1.31198e-014
lhumerus -38.6505 2.77821 83.4902
lradius 48.5424
lwrist 1.05885
lhand 0.479855 12.3326
lfingers 7.12502
lthumb 26.0499 40.5665
rfemur 4.40185 12.5431 26.5368
rtibia 18.9213
rfoot -23.4541 -1.56078
rtoes 2.58157
lfemur -20.2047 -7.95738 -9.95772
ltibia 32.6096
lfoot -17.1964 -13.992
ltoes -4.78282
102
root -38.7303 17.4619 -3.43152 -18.5304 78.2613 -18.1563
lowerback 14.0321 -1.23845 1.73576
upperback 5.35871 -1.05475 2.98751
thorax -2.19343 -0.428409 2.30275
lowerneck -3.67252 4.42803 1.31876
upperneck -2.41643 5.87056 -5.53522
head 0.0837046 2.94118 -1.86383
rclavicle -6.95746e-015 -3.93594e-014
rhumerus -35.4374 16.6836 -83.855
rradius 45.6265
rwrist 3.4862
rhand -6.81603 -17.015
rfingers 7.12502
rthumb 19.0477 -46.1023
lclavicle -6.95746e-015 -3.93594e-014
lhumerus -38.6205 2.70705 83.5099
lradius 48.5392
lwrist 1.07714
lhand 0.511213 12.3557
lfingers 7.12502
lthumb 26.0799 40.5851
rfemur 4.33816 12.4403 26.5611
rtibia 18.9214
rfoot -23.4444 -1.60491
rtoes 2.27547
lfemur -20.3844 -8.08329 -9.90283
ltibia 32.7601
lfoot -17.2438 -13.9606
ltoes -4.65037
103
root -38.7302 17.4589 -3.43191 -18.8547 78.356 -18.5551
lowerback 14.1003 -1.2558 1.76374
upperback 5.38822 -1.06846 3.00622
thorax -2.19875 -0.433833 2.3099
lowerneck -3.58836 4.42599 1.08752
upperneck -2.46355 5.87437 -5.42105
head 0.043838 2.94705 -1.79003
rclavicle -4.36332e-014 6.40087e-014
rhumerus -35.3568 16.7707 -83.9026
rradius 45.7214
rwrist 3.47879
rhand -6.84442 -17.0261
rfingers 7.12502
rthumb 19.0204 -46.1161
lclavicle -4.36332e-014 6.40087e-014
lhumerus -38.5798 2.63723 83.5257
lradius 48.5272
lwrist 1.08818
lhand 0.549785 12.3788
lfingers 7.12502
lthumb 26.1169 40.6029
rfemur 4.27179 12.338 26.593
rtibia 18.9285
rfoot -23.4381 -1.65949
rtoes 1.96871
lfemur -20.5735 -8.20858 -9.8426
ltibia 32.926
lfoot -17.3009 -13.9378
ltoes -4.49567
104
root -38.7296 17.4559 -3.43251 -19.2253 78.4539 -19.0018
lowerback 14.1001 -1.27039 1.65351
upperback 5.48649 -1.09345 3.14243
thorax -2.08957 -0.445646 2.51778
lowerneck -3.58092 4.44292 0.723987
upperneck -2.51881 5.90951 -5.39532
head 0.0141963 2.96965 -1.71975
rclavicle 6.65929e-015 -1.43125e-014
rhumerus -35.1451 17.0341 -83.7787
rradius 45.8273
rwrist 3.42028
rhand -6.87129 -17.0455
rfingers 7.12502
rthumb 18.9946 -46.138
lclavicle 6.65929e-015 -1.43125e-014
lhumerus -38.4313 2.75778 83.6766
lradius 48.4904
lwrist 1.05192
lhand 0.59374 12.3935
lfingers 7.12502
lthumb 26.1589 40.6113
rfemur 4.20025 12.2363 26.6324
rtibia 18.9439
rfoot -23.4347 -1.7209
rtoes 1.66239
lfemur -20.7708 -8.3252 -9.77639
ltibia 33.1069
lfoot -17.3796 -13.9206
ltoes -4.36523
105
root -38.7284 17.4527 -3.43337 -19.6396 78.5515 -19.492
lowerback 14.1429 -1.31702 1.58718
upperback 5.57828 -1.15366 3.25737
thorax -2.01005 -0.474513 2.68524
lowerneck -3.6274 4.48866 0.319645
upperneck -2.52301 5.98715 -5.35631
head 0.00877557 3.01228 -1.63591
rclavicle 9.93923e-015 -2.38542e-014
rhumerus -34.9173 17.3552 -83.7047
rradius 45.9245
rwrist 3.36371
rhand -6.90458 -17.0557
rfingers 7.12502
rthumb 18.9626 -46.1513
lclavicle 9.93923e-015 -2.38542e-014
lhumerus -38.2952 2.942 83.7702
lradius 48.4603
lwrist 1.01025
lhand 0.647683 12.4031
lfingers 7.12502
lthumb 26.2106 40.6132
rfemur 4.12705 12.135 26.6792
rtibia 18.9669
rfoot -23.4369 -1.78786
rtoes 1.34625
lfemur -20.9732 -8.4296 -9.70472
ltibia 33.3022
lfoot -17.4899 -13.9025
ltoes -4.29678
106
root -38.7265 17.4495 -3.43435 -20.0802 78.6438 -20.0111
lowerback 14.1879 -1.37854 1.50702
upperback 5.68609 -1.23402 3.38964
thorax -1.91284 -0.513539 2.88182
lowerneck -3.7264 4.55898 -0.149506
upperneck -2.49396 6.10308 -5.32383
head 0.0211366 3.07342 -1.54127
rclavicle -4.13472e-014 1.55052e-014
rhumerus -34.6434 17.7566 -83.6123
rradius 46.0171
rwrist 3.28944
rhand -6.94204 -17.0625
rfingers 7.12502
rthumb 18.9266 -46.1617
lclavicle -4.13472e-014 1.55052e-014
lhumerus -38.1364 3.21583 83.8637
lradius 48.4325
lwrist 0.953596
lhand 0.703014 12.3985
lfingers 7.12502
lthumb 26.2636 40.6008
rfemur 4.04892 12.0393 26.7312
rtibia 18.9946
rfoot -23.443 -1.85441
rtoes 1.03411
lfemur -21.1803 -8.51538 -9.62785
ltibia 33.5123
lfoot -17.6309 -13.891
ltoes -4.27874
107
root -38.7238 17.4463 -3.43545 -20.5424 78.729 -20.5528
lowerback 14.2541 -1.45743 1.43767
upperback 5.79626 -1.33488 3.51759
thorax -1.82314 -0.562687 3.07158
lowerneck -3.87862 4.64668 -0.644353
upperneck -2.42044 6.24761 -5.30203
head 0.0555543 3.14733 -1.44381
rclavicle 1.25234e-014 -1.19271e-014
rhumerus -34.3583 18.2213 -83.5382
rradius 46.1142
rwrist 3.20109
rhand -6.98955 -17.0734
rfingers 7.12502
rthumb 18.8809 -46.1771
lclavicle 1.25234e-014 -1.19271e-014
lhumerus -37.9799 3.55312 83.9292
lradius 48.417
lwrist 0.891281
lhand 0.758941 12.3857
lfingers 7.12502
lthumb 26.3171 40.58
rfemur 3.97158 11.9468 26.7879
rtibia 19.0233
rfoot -23.451 -1.92052
rtoes 0.70312
lfemur -21.3908 -8.57766 -9.54772
ltibia 33.7379
lfoot -17.806 -13.8894
ltoes -4.32222
108
root -38.7202 17.4429 -3.43656 -21.0296 78.806 -21.1196
lowerback 14.3533 -1.54884 1.40634
upperback 5.89558 -1.44701 3.61608
thorax -1.76296 -0.616922 3.21185
lowerneck -4.04364 4.75524 -1.16401
upperneck -2.30486 6.42454 -5.23277
head 0.102208 3.23602 -1.32659
rclavicle 5.56597e-014 -2.70347e-014
rhumerus -34.0981 18.7009 -83.5184
rradius 46.2262
rwrist 3.10289
rhand -7.03868 -17.0852
rfingers 7.12502
rthumb 18.8336 -46.1935
lclavicle 5.56597e-014 -2.70347e-014
lhumerus -37.8488 3.90022 83.9392
lradius 48.4244
lwrist 0.832716
lhand 0.811191 12.368
lfingers 7.12502
lthumb 26.3671 40.5548
rfemur 3.89792 11.8551 26.8507
rtibia 19.0492
rfoot -23.4594 -1.98468
rtoes 0.339543
lfemur -21.6032 -8.61255 -9.46344
ltibia 33.979
lfoot -18.0169 -13.9016
ltoes -4.42458
109
root -38.7158 17.4395 -3.43764 -21.5221 78.8752 -21.6932
lowerback 14.4842 -1.64331 1.42455
upperback 5.97494 -1.55746 3.66726
thorax -1.74305 -0.669536 3.27551
lowerneck -4.21156 4.86131 -1.62623
upperneck -2.15008 6.59882 -5.15302
head 0.161743 3.32124 -1.21578
rclavicle 5.74488e-014 -3.18055e-015
rhumerus -33.887 19.1382 -83.5733
rradius 46.3451
rwrist 3.00911
rhand -7.08753 -17.0984
rfingers 7.12502
rthumb 18.7866 -46.2112
lclavicle 5.74488e-014 -3.18055e-015
lhumerus -37.7578 4.20435 83.8788
lradius 48.4585
lwrist 0.78705
lhand 0.856117 12.3432
lfingers 7.12502
lthumb 26.4101 40.5236
rfemur 3.83012 11.7676 26.9161
rtibia 19.0665
rfoot -23.4679 -2.04472
rtoes -0.0159498
lfemur -21.8185 -8.61683 -9.37958
ltibia 34.2357
lfoot -18.2764 -13.9202
ltoes -4.6291
110
root -38.7101 17.4361 -3.43869 -22.0105 78.9381 -22.2648
lowerback 14.6376 -1.72899 1.48376
upperback 6.03232 -1.65217 3.6713
thorax -1.76149 -0.713638 3.26516
lowerneck -4.35714 4.95873 -2.02144
upperneck -1.96384 6.7598 -5.04537
head 0.227322 3.39804 -1.10834
rclavicle -3.18055e-014 9.93923e-015
rhumerus -33.7465 19.5061 -83.6996
rradius 46.4819
rwrist 2.91524
rhand -7.13387 -17.1145
rfingers 7.12502
rthumb 18.7421 -46.2316
lclavicle -3.18055e-014 9.93923e-015
lhumerus -37.7107 4.43571 83.7564
lradius 48.5216
lwrist 0.752363
lhand 0.89311 12.3177
lfingers 7.12502
lthumb 26.4455 40.4927
rfemur 3.76993 11.6806 26.9808
rtibia 19.0707
rfoot -23.4735 -2.09738
rtoes -0.364327
lfemur -22.0366 -8.59258 -9.29873
ltibia 34.5081
lfoot -18.5792 -13.9488
ltoes -4.9034
111
root -38.7032 17.433 -3.43968 -22.4908 78.9955 -22.8327
lowerback 14.794 -1.79607 1.55924
upperback 6.07546 -1.72175 3.64248
thorax -1.7994 -0.745026 3.20762
lowerneck -4.46888 5.04004 -2.33728
upperneck -1.76475 6.89518 -4.93201
head 0.292806 3.46097 -1.01374
rclavicle 2.32578e-014 -4.37326e-015
rhumerus -33.6676 19.7973 -83.8709
rradius 46.6361
rwrist 2.8247
rhand -7.18381 -17.1253
rfingers 7.12502
rthumb 18.694 -46.247
lclavicle 2.32578e-014 -4.37326e-015
lhumerus -37.6948 4.59147 83.5969
lradius 48.611
lwrist 0.728204
lhand 0.913784 12.2904
lfingers 7.12502
lthumb 26.4653 40.4625
rfemur 3.71747 11.5937 27.0445
rtibia 19.0576
rfoot -23.4736 -2.13955
rtoes -0.692853
lfemur -22.2574 -8.54313 -9.22072
ltibia 34.7919
lfoot -18.9333 -13.9818
ltoes -5.25871
